<svg width="256" height="256" viewBox="0 0 256 256" fill="none" xmlns="http://www.w3.org/2000/svg">
<path d="M0 57.2672C0 25.6394 25.6394 0 57.2672 0H198.733C230.361 0 256 25.6394 256 57.2672V198.733C256 230.361 230.361 256 198.733 256H57.2672C25.6394 256 0 230.361 0 198.733V57.2672Z" fill="#FFFBF5"/>
<path d="M127.996 147.911C108.086 134.637 94.8116 118.045 88.1749 98.1341" stroke="#FF6B6B" stroke-width="15.9285" stroke-linecap="round"/>
<path d="M127.996 147.911C127.996 121.363 127.996 98.1341 127.996 78.2235" stroke="#B57BEC" stroke-width="15.9285" stroke-linecap="round"/>
<path d="M127.996 147.911C147.907 134.637 161.181 118.045 167.817 98.1341" stroke="#6DD86D" stroke-width="15.9285" stroke-linecap="round"/>
<path d="M127.996 157.866C133.495 157.866 137.952 153.409 137.952 147.911C137.952 142.412 133.495 137.955 127.996 137.955C122.498 137.955 118.041 142.412 118.041 147.911C118.041 153.409 122.498 157.866 127.996 157.866Z" fill="#6DD86D"/>
</svg>
